<mxfile host="app.diagrams.net" agent="Mozilla/5.0 (Windows NT 10.0; Win64; x64) AppleWebKit/537.36 (KHTML, like Gecko) Chrome/140.0.0.0 Safari/537.36 Edg/140.0.0.0" version="28.2.1">
  <diagram id="4v0Czf7GwnOL494cCDRl" name="ページ1">
    <mxGraphModel dx="1034" dy="570" grid="1" gridSize="10" guides="1" tooltips="1" connect="1" arrows="1" fold="1" page="1" pageScale="1" pageWidth="827" pageHeight="1169" math="0" shadow="0">
      <root>
        <mxCell id="0" />
        <mxCell id="1" parent="0" />
        <mxCell id="Ldtqs2EkzN1oGeuTZgkQ-2" value="名前" style="rounded=0;whiteSpace=wrap;html=1;" vertex="1" parent="1">
          <mxGeometry y="160" width="90" height="40" as="geometry" />
        </mxCell>
        <mxCell id="Ldtqs2EkzN1oGeuTZgkQ-3" value="時刻" style="rounded=0;whiteSpace=wrap;html=1;" vertex="1" parent="1">
          <mxGeometry x="90" y="160" width="90" height="40" as="geometry" />
        </mxCell>
        <mxCell id="Ldtqs2EkzN1oGeuTZgkQ-4" value="RoboDog" style="rounded=0;whiteSpace=wrap;html=1;" vertex="1" parent="1">
          <mxGeometry x="180" y="40" width="90" height="40" as="geometry" />
        </mxCell>
        <mxCell id="Ldtqs2EkzN1oGeuTZgkQ-5" value="挨拶" style="rounded=0;whiteSpace=wrap;html=1;" vertex="1" parent="1">
          <mxGeometry x="180" y="160" width="90" height="40" as="geometry" />
        </mxCell>
        <mxCell id="Ldtqs2EkzN1oGeuTZgkQ-6" value="" style="endArrow=diamondThin;html=1;rounded=0;endFill=0;strokeWidth=1;entryX=0.107;entryY=0.91;entryDx=0;entryDy=0;exitX=0.662;exitY=-0.03;exitDx=0;exitDy=0;exitPerimeter=0;endSize=8;entryPerimeter=0;" edge="1" parent="1" source="Ldtqs2EkzN1oGeuTZgkQ-2" target="Ldtqs2EkzN1oGeuTZgkQ-4">
          <mxGeometry width="50" height="50" relative="1" as="geometry">
            <mxPoint x="70" y="150" as="sourcePoint" />
            <mxPoint x="120" y="100" as="targetPoint" />
          </mxGeometry>
        </mxCell>
        <mxCell id="Ldtqs2EkzN1oGeuTZgkQ-7" value="" style="endArrow=diamondThin;html=1;rounded=0;endFill=0;strokeWidth=1;entryX=0.5;entryY=1;entryDx=0;entryDy=0;exitX=0.5;exitY=0;exitDx=0;exitDy=0;endSize=8;" edge="1" parent="1" source="Ldtqs2EkzN1oGeuTZgkQ-5" target="Ldtqs2EkzN1oGeuTZgkQ-4">
          <mxGeometry width="50" height="50" relative="1" as="geometry">
            <mxPoint x="520" y="193" as="sourcePoint" />
            <mxPoint x="580" y="110" as="targetPoint" />
          </mxGeometry>
        </mxCell>
        <mxCell id="Ldtqs2EkzN1oGeuTZgkQ-8" value="" style="endArrow=diamondThin;html=1;rounded=0;endFill=0;strokeWidth=1;entryX=0.187;entryY=1.03;entryDx=0;entryDy=0;endSize=8;entryPerimeter=0;exitX=0.75;exitY=0;exitDx=0;exitDy=0;" edge="1" parent="1" source="Ldtqs2EkzN1oGeuTZgkQ-3" target="Ldtqs2EkzN1oGeuTZgkQ-4">
          <mxGeometry width="50" height="50" relative="1" as="geometry">
            <mxPoint x="160" y="150" as="sourcePoint" />
            <mxPoint x="430" y="190" as="targetPoint" />
          </mxGeometry>
        </mxCell>
        <mxCell id="Ldtqs2EkzN1oGeuTZgkQ-10" value="足し算結果" style="rounded=0;whiteSpace=wrap;html=1;" vertex="1" parent="1">
          <mxGeometry x="270" y="160" width="90" height="40" as="geometry" />
        </mxCell>
        <mxCell id="Ldtqs2EkzN1oGeuTZgkQ-11" value="" style="endArrow=diamondThin;html=1;rounded=0;endFill=0;strokeWidth=1;entryX=0.75;entryY=1;entryDx=0;entryDy=0;exitX=0.164;exitY=0.11;exitDx=0;exitDy=0;exitPerimeter=0;endSize=8;" edge="1" parent="1" source="Ldtqs2EkzN1oGeuTZgkQ-10" target="Ldtqs2EkzN1oGeuTZgkQ-4">
          <mxGeometry width="50" height="50" relative="1" as="geometry">
            <mxPoint x="712" y="381" as="sourcePoint" />
            <mxPoint x="360" y="270" as="targetPoint" />
          </mxGeometry>
        </mxCell>
        <mxCell id="Ldtqs2EkzN1oGeuTZgkQ-12" value="2つの整数" style="rounded=0;whiteSpace=wrap;html=1;" vertex="1" parent="1">
          <mxGeometry x="360" y="160" width="90" height="40" as="geometry" />
        </mxCell>
        <mxCell id="Ldtqs2EkzN1oGeuTZgkQ-13" value="" style="endArrow=diamondThin;html=1;rounded=0;endFill=0;strokeWidth=1;entryX=1;entryY=1;entryDx=0;entryDy=0;exitX=0.164;exitY=0.11;exitDx=0;exitDy=0;exitPerimeter=0;endSize=8;" edge="1" parent="1" source="Ldtqs2EkzN1oGeuTZgkQ-12" target="Ldtqs2EkzN1oGeuTZgkQ-4">
          <mxGeometry width="50" height="50" relative="1" as="geometry">
            <mxPoint x="772" y="241" as="sourcePoint" />
            <mxPoint x="420" y="130" as="targetPoint" />
          </mxGeometry>
        </mxCell>
        <mxCell id="Ldtqs2EkzN1oGeuTZgkQ-14" value="ドメインモデル＝名詞リストを線で結んだもの" style="text;html=1;align=center;verticalAlign=middle;whiteSpace=wrap;rounded=0;" vertex="1" parent="1">
          <mxGeometry x="230" y="10" width="140" height="30" as="geometry" />
        </mxCell>
      </root>
    </mxGraphModel>
  </diagram>
</mxfile>
